<svg xmlns="http://www.w3.org/2000/svg" enable-background="new 0 0 49 49" viewBox="0 0 49 49" id="Brainstorming"><path d="M45.8 25.1c.5-1 .8-2.1.8-3.2 0-2.5-1.4-4.9-3.6-6.1 0-.2 0-.3 0-.5 0-3-2.3-5.5-5.3-5.8V9.4c0-3.4-2.8-6.2-6.2-6.2-3.4 0-6.2 2.8-6.2 6.2v29.5c0 3.9 3.1 7 7 7 2.6 0 4.9-1.4 6.1-3.6.3.1.6.1.9.1 2.2 0 3.9-1.7 4-3.9 3-1.2 5.1-4.1 5.1-7.4C48.5 28.8 47.5 26.6 45.8 25.1zM29.6 11c0-1.1.9-2.1 2.1-2.1 1.1 0 2.1.9 2.1 2.1 0 .9-.5 1.6-1.3 1.9v2.8c.5.2.9.6 1.2 1.1h2.9c.3-.7 1-1.3 1.9-1.3 1.1 0 2.1.9 2.1 2.1 0 1.1-.9 2.1-2.1 2.1-.9 0-1.6-.5-1.9-1.3h-2.9c-.3.8-1 1.3-1.9 1.3-1.1 0-2.1-.9-2.1-2.1 0-.9.5-1.6 1.3-1.9v-2.8C30.1 12.6 29.6 11.8 29.6 11zM32.9 40.5c-.3.5-.8.8-1.3.9-.1 0-.3 0-.4 0-.4 0-.8-.1-1.2-.4-.5-.3-.8-.8-.9-1.3-.1-.5 0-1.1.3-1.5.2-.2.4-.4.6-.6l-.5-2.7c-.3-.1-.5-.1-.8-.3-.5-.3-.8-.8-.9-1.3-.1-.5 0-1.1.3-1.5.3-.5.8-.8 1.3-.9.5-.1 1.1 0 1.5.3.5.3.8.8.9 1.3.2.8-.2 1.7-.9 2.1l.5 2.7c.3.1.5.2.8.3.4.3.8.8.9 1.3C33.3 39.5 33.2 40 32.9 40.5zM31.9 25.5c-.2.1-.4.1-.6.1 0 0 0 0 0 0-.5 0-1.1-.2-1.5-.6-.8-.8-.8-2.1 0-2.9.4-.4.9-.6 1.4-.6 0 0 0 0 0 0 .5 0 1.1.2 1.4.6.7.6.8 1.6.4 2.4l2.2 3.8c.2-.1.3-.1.5-.1l.7-2.2c0 0-.1 0-.1-.1-.4-.4-.6-.9-.6-1.5 0-.5.2-1.1.6-1.5.8-.8 2.1-.8 2.9 0 .4.4.6.9.6 1.5 0 .6-.2 1.1-.6 1.5-.4.4-.9.6-1.4.6l-.7 2.1c.1 0 .1.1.1.1.8.8.8 2.1 0 2.9-.4.4-.9.6-1.5.6-.5 0-1.1-.2-1.5-.6-.4-.4-.6-.9-.6-1.5 0-.3.1-.7.2-.9L31.9 25.5zM44.2 34.4c-.2.5-.6.9-1.2 1.1-.2.1-.5.1-.7.1-.3 0-.6-.1-.9-.2-.3-.1-.5-.3-.7-.5l-2.6.9c0 .8-.5 1.6-1.3 1.9-.2.1-.5.1-.7.1-.3 0-.6-.1-.9-.2-.5-.2-.9-.6-1.1-1.2-.4-1.1.2-2.3 1.2-2.6.5-.2 1.1-.2 1.6.1.3.1.5.3.7.5l2.6-.9c0-.8.5-1.6 1.3-1.9.5-.2 1.1-.2 1.6.1.5.2.9.6 1.1 1.2C44.4 33.4 44.4 33.9 44.2 34.4zM17.4 3.2c-3.4 0-6.2 2.8-6.2 6.2 0 .1 0 .1 0 .2C8.3 9.8 6 12.3 6 15.4c0 .2 0 .3 0 .5-2.2 1.2-3.6 3.5-3.6 6.1 0 1.1.3 2.2.8 3.2-1.7 1.5-2.7 3.7-2.7 5.9 0 3.3 2.1 6.2 5.1 7.4.1 2.2 1.8 3.9 4 3.9.3 0 .6 0 .9-.1 1.2 2.2 3.6 3.6 6.1 3.6 3.9 0 7-3.1 7-7V9.4C23.6 5.9 20.9 3.2 17.4 3.2zM8.5 23.1c0-.4.3-.8.8-.8.4 0 .8.3.8.8 0 2.1 1.7 3.7 3.7 3.7.4 0 .8.3.8.8 0 .4-.3.8-.8.8C10.8 28.4 8.5 26 8.5 23.1zM18.8 40.4c-.4 0-.8-.3-.8-.8 0-2.1-1.7-3.7-3.7-3.7-.4 0-.8-.3-.8-.8 0-.4.3-.8.8-.8 2.9 0 5.3 2.4 5.3 5.2C19.5 40 19.2 40.4 18.8 40.4zM14.5 19.2c-.4 0-.8-.3-.8-.8 0-.4.3-.8.8-.8 2.1 0 3.7-1.7 3.7-3.7 0-.4.3-.8.8-.8.4 0 .8.3.8.8C19.8 16.9 17.4 19.2 14.5 19.2z" fill="#595bd4" class="color000000 svgShape"></path></svg>